<?xml version="1.0" encoding="UTF-8"?>
<svg xmlns="http://www.w3.org/2000/svg" width="34" height="32" viewBox="0 0 34 32" fill="none">
  <path d="M20.576 23.3709C18.6017 21.3966 15.4004 21.3966 13.4261 23.3709C11.4517 25.3452 11.4517 28.5465 13.4261 30.5209C15.4004 32.4952 18.6017 32.4952 20.576 30.5209C22.5504 28.5465 22.5504 25.3452 20.576 23.3709Z" fill="#1004A4"></path>
  <path d="M13.9749 8.46792L15.3212 9.81417L17.0046 11.4976L18.8292 9.67297L20.0343 8.46792C22.2204 6.28178 25.7637 6.28178 27.9487 8.46792L22.969 3.48826L21.2308 1.75006C18.8974 -0.583354 15.113 -0.583354 12.7784 1.75006L11.2557 3.27281L4.78125 9.74722L6.06055 8.46792C8.24547 6.28178 11.79 6.28178 13.9749 8.46792Z" fill="#1004A4"></path>
  <path d="M32.2737 12.7979L31.8988 12.423L29.3633 9.88749L27.9441 8.46821C25.7591 6.28208 22.2146 6.28208 20.0297 8.46821L18.8246 9.67326L17 11.4979L25.2869 19.7847C27.2162 21.714 30.3444 21.714 32.2737 19.7847C34.203 17.8554 34.203 14.7272 32.2737 12.7979Z" fill="#E12A80"></path>
  <path d="M13.9723 8.46821C11.7874 6.28208 8.2428 6.28208 6.05789 8.46821L4.77859 9.74751L1.72822 12.7979C-0.201075 14.7272 -0.201075 17.8554 1.72822 19.7847C3.65752 21.714 6.78579 21.714 8.71509 19.7847L9.08999 19.4098L17.0019 11.4979L15.3185 9.81446L13.9723 8.46821Z" fill="#49B3F3"></path>
</svg>
